<svg width="33" height="33" viewBox="0 0 33 33" fill="none" xmlns="http://www.w3.org/2000/svg">
<path d="M9.66712 0.0498047H22.8842C27.9193 0.0498047 32.0103 4.20803 32.0103 9.32584V22.7601C32.0103 25.2203 31.0488 27.5797 29.3374 29.3193C27.6259 31.0589 25.3046 32.0361 22.8842 32.0361H9.66712C4.63203 32.0361 0.541016 27.8779 0.541016 22.7601V9.32584C0.541016 6.86569 1.50251 4.50629 3.21399 2.76669C4.92547 1.0271 7.24672 0.0498047 9.66712 0.0498047ZM9.35242 3.24844C7.85011 3.24844 6.40933 3.85504 5.34703 4.93478C4.28474 6.01453 3.68795 7.47899 3.68795 9.00598V23.08C3.68795 26.2626 6.22123 28.8375 9.35242 28.8375H23.1989C24.7012 28.8375 26.142 28.2309 27.2043 27.1512C28.2666 26.0714 28.8634 24.607 28.8634 23.08V9.00598C28.8634 5.82334 26.3301 3.24844 23.1989 3.24844H9.35242ZM24.5364 5.64741C25.058 5.64741 25.5583 5.85804 25.9271 6.23295C26.296 6.60786 26.5032 7.11635 26.5032 7.64656C26.5032 8.17677 26.296 8.68526 25.9271 9.06017C25.5583 9.43508 25.058 9.64571 24.5364 9.64571C24.0147 9.64571 23.5145 9.43508 23.1456 9.06017C22.7768 8.68526 22.5695 8.17677 22.5695 7.64656C22.5695 7.11635 22.7768 6.60786 23.1456 6.23295C23.5145 5.85804 24.0147 5.64741 24.5364 5.64741ZM16.2757 8.04639C18.3622 8.04639 20.3633 8.88889 21.8387 10.3885C23.3141 11.8882 24.143 13.9222 24.143 16.043C24.143 18.1638 23.3141 20.1978 21.8387 21.6974C20.3633 23.1971 18.3622 24.0396 16.2757 24.0396C14.1891 24.0396 12.188 23.1971 10.7126 21.6974C9.23722 20.1978 8.40834 18.1638 8.40834 16.043C8.40834 13.9222 9.23722 11.8882 10.7126 10.3885C12.188 8.88889 14.1891 8.04639 16.2757 8.04639ZM16.2757 11.245C15.0237 11.245 13.8231 11.7505 12.9378 12.6503C12.0526 13.5501 11.5553 14.7705 11.5553 16.043C11.5553 17.3155 12.0526 18.5359 12.9378 19.4356C13.8231 20.3354 15.0237 20.8409 16.2757 20.8409C17.5276 20.8409 18.7283 20.3354 19.6135 19.4356C20.4987 18.5359 20.9961 17.3155 20.9961 16.043C20.9961 14.7705 20.4987 13.5501 19.6135 12.6503C18.7283 11.7505 17.5276 11.245 16.2757 11.245Z" fill="#A01A18"/>
</svg>
