<svg width="184" height="112" viewBox="0 0 184 112" fill="none" xmlns="http://www.w3.org/2000/svg">
<path fill-rule="evenodd" clip-rule="evenodd" d="M24.4058 32.2505C24.4431 32.3466 24.4431 32.3892 24.4592 32.3946C28.8284 34.4111 30.8076 38.0655 31.3091 42.5468C31.8373 47.2041 31.976 51.9095 31.2398 56.5508C30.0821 63.8329 26.0169 67.658 18.5321 68.1274C12.9145 68.4742 7.25423 68.1968 1.55127 68.1968V0.684172H2.45819C7.08351 0.684172 11.7088 0.630817 16.3288 0.71084C18.0573 0.737514 19.8178 0.913565 21.4983 1.30301C26.0543 2.36465 28.8444 5.3255 29.906 9.75876C31.0797 14.6348 31.053 19.5856 30.0608 24.4883C29.3299 28.0893 28.0282 29.6951 24.4058 32.2559V32.2505ZM11.266 58.6421C13.1386 58.6421 14.9578 58.6634 16.7823 58.6421C19.7698 58.5994 21.4983 57.2603 21.6584 54.2995C21.8611 50.5224 21.8237 46.7187 21.6263 42.9416C21.5036 40.6316 20.4473 38.5723 17.8333 38.1562C15.694 37.8201 13.4907 37.8681 11.266 37.7454V58.6421ZM11.2447 28.244C12.7171 28.244 14.1202 28.2707 15.5233 28.2387C18.3507 28.164 20.1059 26.7983 20.6127 24.0295C21.2102 20.7166 21.1729 17.3663 20.602 14.048C20.3353 12.4955 19.5724 11.1512 17.94 10.6337C15.7527 9.94015 13.5013 10.4096 11.25 10.2709V28.244H11.2447Z" fill="#A01A18"/>
<path fill-rule="evenodd" clip-rule="evenodd" d="M141.383 34.4643C141.383 28.6546 141.303 22.845 141.42 17.0353C141.463 14.7466 141.703 12.3993 142.274 10.1907C143.922 3.82619 148.484 0.241162 155.126 0.0277676C157.11 -0.0362507 159.175 0.145134 161.09 0.635941C166.297 1.98033 169.162 5.65604 170.335 10.6495C170.805 12.65 171.045 14.752 171.056 16.8059C171.125 28.5746 171.13 40.3433 171.05 52.1067C171.034 54.3366 170.746 56.6146 170.186 58.7752C168.527 65.1397 163.875 68.7514 157.206 68.9061C155.28 68.9488 153.28 68.7834 151.418 68.3033C146.216 66.9642 143.325 63.3099 142.146 58.3164C141.655 56.2305 141.447 54.0432 141.415 51.8933C141.319 46.0889 141.383 40.2739 141.383 34.4643ZM161.367 34.555C161.367 28.5693 161.41 22.5782 161.335 16.5978C161.314 15.1414 161.074 13.637 160.615 12.2606C159.954 10.3027 158.257 9.59317 156.273 9.58783C154.256 9.5825 152.56 10.2974 151.855 12.2926C151.439 13.4716 151.162 14.768 151.162 16.011C151.109 28.3079 151.114 40.6047 151.157 52.9069C151.157 54.0165 151.354 55.1582 151.679 56.2198C152.32 58.3164 153.957 59.3567 156.273 59.3514C158.588 59.3461 160.231 58.3004 160.823 56.1825C161.181 54.9181 161.341 53.5631 161.351 52.2454C161.405 46.3503 161.378 40.45 161.378 34.555H161.367Z" fill="#A01A18"/>
<path fill-rule="evenodd" clip-rule="evenodd" d="M44.8437 0.726562H59.1358C62.4434 23.1917 65.751 45.6727 69.0693 68.2072H59.2425C58.677 64.1474 58.1222 60.1142 57.5567 56.0277H45.5426C44.9824 60.0609 44.4169 64.1207 43.8514 68.2019H34.9155C38.2285 45.6887 41.5361 23.229 44.8437 0.726562ZM56.2123 46.7931C54.6758 35.3925 53.1447 24.0666 51.619 12.746C51.5389 12.746 51.4643 12.746 51.3896 12.746C49.8585 24.0772 48.3274 35.4138 46.7909 46.7931H56.2176H56.2123Z" fill="#A01A18"/>
<path fill-rule="evenodd" clip-rule="evenodd" d="M126.936 43.0853H135.995C136.043 43.1707 136.096 43.2187 136.096 43.2667C136.016 48.0308 136.518 52.8108 135.584 57.5428C135.371 58.6418 135.061 59.7408 134.645 60.7757C132.485 66.1533 128.265 68.6713 122.573 68.9114C120.881 68.9808 119.132 68.858 117.483 68.5006C112.01 67.3216 108.953 63.6779 107.731 58.4817C107.24 56.3958 107.005 54.2085 106.995 52.0586C106.925 40.3219 106.92 28.5852 107 16.8485C107.016 14.5599 107.304 12.2178 107.87 10.0039C109.459 3.75143 113.914 0.262439 120.439 0.0170352C122.162 -0.0469831 123.938 0.0650431 125.619 0.427813C131.092 1.60682 134.128 5.2612 135.366 10.452C135.83 12.3939 135.995 14.4265 136.102 16.4324C136.224 18.7317 136.128 21.0417 136.128 23.3944H126.936C126.936 23.0423 126.942 22.6955 126.936 22.3541C126.883 19.66 126.936 16.9605 126.75 14.2718C126.574 11.695 125.165 10.1053 123.063 9.71047C119.644 9.07029 117.296 10.7454 116.854 14.1757C116.747 15.024 116.688 15.8882 116.688 16.7472C116.678 28.5745 116.672 40.3966 116.694 52.224C116.699 53.371 116.8 54.5446 117.056 55.6596C117.606 58.055 119.206 59.2126 121.74 59.2286C124.349 59.2393 125.971 58.1083 126.542 55.6916C126.798 54.6086 126.888 53.467 126.91 52.3466C126.958 49.5939 126.926 46.8357 126.926 44.0776V43.08L126.936 43.0853Z" fill="#A01A18"/>
<path fill-rule="evenodd" clip-rule="evenodd" d="M101.874 23.4H92.6922C92.6922 21.1967 92.7242 19.0414 92.6762 16.8861C92.6495 15.7338 92.5909 14.5654 92.3508 13.4504C91.6146 10.1002 88.2963 8.57438 85.1701 10.0895C83.4416 10.9271 82.8654 12.5062 82.6147 14.2293C82.492 15.0776 82.4493 15.9418 82.4493 16.8007C82.4386 28.5961 82.4279 40.3915 82.4653 52.1869C82.4653 53.5046 82.6253 54.8596 82.9828 56.124C83.5803 58.2579 85.1434 59.2235 87.5494 59.2289C89.9661 59.2289 91.5346 58.2686 92.1427 56.1507C92.4895 54.945 92.6282 53.6486 92.6655 52.3896C92.7402 49.6368 92.6869 46.8787 92.6869 44.1206V43.0962H101.777C101.804 43.1869 101.863 43.2936 101.863 43.4003C101.809 47.3695 101.911 51.3493 101.633 55.3024C101.484 57.3563 100.903 59.4636 100.092 61.3735C97.9417 66.4363 93.7325 68.6716 88.3656 68.9063C86.6425 68.981 84.8607 68.8529 83.1802 68.4848C77.7066 67.2952 74.6924 63.6248 73.46 58.434C73.0119 56.5454 72.7505 54.5715 72.7398 52.635C72.6758 40.5142 72.6651 28.388 72.7452 16.2672C72.7612 14.16 73.0866 11.9994 73.6148 9.95611C75.2259 3.741 79.7072 0.236002 86.2264 0.0172724C87.9495 -0.0414111 89.7314 0.0759493 91.4065 0.444055C96.8801 1.63906 99.8889 5.31478 101.121 10.5003C101.569 12.3888 101.74 14.3627 101.841 16.3046C101.964 18.6359 101.868 20.9779 101.868 23.3946L101.874 23.4Z" fill="#A01A18"/>
<path fill-rule="evenodd" clip-rule="evenodd" d="M38.7191 99.4749V102.665C38.7191 105.359 38.7191 108.059 38.7191 110.753C38.7191 111.404 38.5377 112.007 37.7588 111.991C36.996 111.975 36.8306 111.388 36.8306 110.726C36.8306 101.689 36.8306 92.6516 36.8306 83.6144C36.8306 82.9582 36.9853 82.3554 37.7482 82.3394C38.5857 82.3234 38.7298 82.9689 38.7245 83.6464V85.9457C38.8311 86.0257 38.9378 86.1058 39.0445 86.1858C39.1406 85.9777 39.1833 85.7323 39.3273 85.567C43.1204 81.0963 49.3782 81.2404 52.9685 85.871C56.1908 90.0322 55.9294 96.354 52.3657 100.232C48.7593 104.159 42.9657 104.068 39.4873 100.04C39.3006 99.827 39.1086 99.6136 38.9218 99.4002C38.8578 99.4216 38.7885 99.4429 38.7245 99.4696L38.7191 99.4749ZM53.3046 92.6676C53.2939 90.459 52.5524 88.4211 51.1974 86.858C48.4392 83.6784 43.8566 83.5984 41.0024 86.6766C37.8655 90.0482 37.9989 95.8045 41.2852 99.0375C44.1233 101.833 48.3112 101.721 51.016 98.76C52.6004 97.0316 53.2993 94.9723 53.3046 92.6623V92.6676Z" fill="black"/>
<path fill-rule="evenodd" clip-rule="evenodd" d="M7.68638 82.3126C9.95369 82.2592 11.7889 83.2889 13.5067 84.5852C14.0508 84.996 14.1202 85.6202 13.6614 86.159C13.2133 86.6765 12.7065 86.4951 12.2263 86.1377C10.7219 85.012 9.16413 84.0304 7.13689 84.2651C5.70715 84.4305 4.45878 84.916 3.59453 86.111C2.58091 87.5141 2.79964 89.1839 4.3094 90.0268C5.43506 90.651 6.74744 90.9551 7.98513 91.3765C9.30817 91.83 10.7219 92.102 11.9596 92.7156C15.0751 94.2573 15.7793 98.1784 13.512 100.798C11.5381 103.081 8.35323 103.961 5.227 102.825C3.76525 102.297 2.45821 101.342 1.11383 100.531C0.494984 100.158 0.286918 99.5495 0.756385 98.936C1.2632 98.2852 1.78601 98.6106 2.30883 99.0054C4.15469 100.414 6.13927 101.443 8.58797 101.198C10.0391 101.054 11.2287 100.414 12.1677 99.3468C13.5387 97.7837 13.1013 95.5697 11.0367 94.4921C9.81499 93.8519 8.38524 93.6118 7.06219 93.1583C5.85118 92.7422 4.56547 92.4435 3.47183 91.814C-0.171882 89.712 0.639025 85.0921 3.66389 83.4169C4.85356 82.7607 6.27797 82.51 7.59568 82.0725C7.62235 82.1579 7.65436 82.2379 7.68104 82.3232L7.68638 82.3126Z" fill="black"/>
<path fill-rule="evenodd" clip-rule="evenodd" d="M164.11 84.3612C163.336 84.3612 162.653 84.3505 161.97 84.3612C161.224 84.3772 160.786 84.1584 160.807 83.2942C160.829 82.478 161.25 82.2859 161.954 82.3072C162.637 82.3286 163.32 82.3072 164.11 82.3072V77.9913C164.11 76.9244 164.11 75.8574 164.11 74.7904C164.11 74.1129 164.275 73.446 165.075 73.446C165.849 73.446 166.073 74.0595 166.068 74.7691C166.057 76.9617 166.068 79.1543 166.068 81.347V82.3019C166.857 82.3019 167.572 82.3126 168.287 82.3019C168.98 82.2912 169.418 82.6433 169.439 83.2835C169.466 83.9824 169.002 84.3452 168.282 84.3505C167.593 84.3505 166.905 84.3505 166.11 84.3505C166.094 84.6813 166.068 84.964 166.068 85.2467C166.068 89.8987 166.068 94.5507 166.068 99.2027C166.068 100.467 166.324 100.809 167.524 101.187C168.148 101.385 168.527 101.795 168.394 102.446C168.255 103.145 167.716 103.364 167.028 103.279C165.294 103.065 164.126 101.555 164.115 99.4641C164.104 95.431 164.115 91.4032 164.115 87.37V84.3505L164.11 84.3612Z" fill="black"/>
<path fill-rule="evenodd" clip-rule="evenodd" d="M105.41 87.4821C106.451 86.3191 107.331 85.1935 108.36 84.2172C109.609 83.0382 111.172 82.4354 112.906 82.3127C113.642 82.2646 114.186 82.4727 114.229 83.2729C114.266 83.9985 113.813 84.3452 113.103 84.3719C110.932 84.4519 109.374 85.6203 108.19 87.2687C106.472 89.6641 105.176 92.2088 105.384 95.3137C105.522 97.405 105.41 99.5176 105.405 101.62C105.405 101.918 105.474 102.265 105.336 102.494C105.144 102.809 104.77 103.263 104.519 103.236C104.173 103.204 103.815 102.815 103.564 102.5C103.431 102.329 103.511 101.988 103.511 101.716C103.511 95.7672 103.511 89.8081 103.511 83.8598C103.511 83.6837 103.506 83.5023 103.516 83.3263C103.554 82.7501 103.847 82.35 104.45 82.3287C105.085 82.3073 105.362 82.7448 105.378 83.3049C105.41 84.3666 105.4 85.4335 105.405 86.5005C105.405 86.8153 105.405 87.13 105.405 87.4768L105.41 87.4821Z" fill="black"/>
<path fill-rule="evenodd" clip-rule="evenodd" d="M79.0025 92.7262C79.0025 95.7191 79.0025 98.7119 79.0025 101.71C79.0025 101.977 79.0878 102.318 78.9545 102.494C78.7144 102.814 78.357 103.209 78.0102 103.241C77.7542 103.268 77.3861 102.814 77.178 102.5C77.05 102.302 77.1086 101.982 77.1086 101.715C77.1086 95.7564 77.1086 89.7974 77.1086 83.8437C77.1086 83.7263 77.1086 83.6036 77.1086 83.4863C77.13 82.8407 77.2793 82.2539 78.0956 82.2859C78.8318 82.3179 79.0025 82.8514 79.0025 83.4756C79.0025 84.0944 79.0025 84.7186 79.0025 85.3428V92.7209V92.7262Z" fill="black"/>
<path fill-rule="evenodd" clip-rule="evenodd" d="M138.124 92.9023C138.124 95.8632 138.124 98.8294 138.124 101.79C138.124 102.084 138.177 102.446 138.022 102.654C137.82 102.932 137.446 103.263 137.147 103.252C136.859 103.247 136.513 102.884 136.331 102.596C136.192 102.372 136.24 102.02 136.24 101.726C136.24 95.7671 136.24 89.8081 136.24 83.8491C136.24 83.673 136.24 83.497 136.251 83.3156C136.299 82.7234 136.529 82.254 137.222 82.286C137.905 82.318 138.129 82.7821 138.129 83.3849C138.14 85.5189 138.129 87.6528 138.129 89.7868V92.9023H138.124Z" fill="black"/>
<path fill-rule="evenodd" clip-rule="evenodd" d="M178.434 9.8492C175.617 9.74784 173.51 7.56589 173.643 4.89312C173.782 2.16701 176.012 0.0917437 178.717 0.177101C181.571 0.267794 183.593 2.3644 183.497 5.11719C183.401 7.80062 181.112 9.93989 178.439 9.8492H178.434ZM182.366 5.01582C182.35 2.72717 180.803 1.13738 178.589 1.14272C176.412 1.14272 174.705 2.86053 174.747 4.99448C174.79 7.24579 176.391 8.87826 178.562 8.87826C180.749 8.87826 182.382 7.21912 182.366 5.01582Z" fill="black"/>
<path fill-rule="evenodd" clip-rule="evenodd" d="M78.9867 76.8765C79.0027 77.9594 78.6827 78.5089 78.0478 78.5143C77.429 78.5143 77.1035 77.9434 77.1089 76.8658C77.1089 76.6577 77.0502 76.3963 77.1569 76.2576C77.4023 75.9322 77.7651 75.4094 78.0105 75.4467C78.3679 75.5001 78.6987 75.9429 78.9761 76.2736C79.0774 76.3963 78.9921 76.6737 78.9921 76.8765H78.9867Z" fill="black"/>
<path fill-rule="evenodd" clip-rule="evenodd" d="M138.108 76.9459C138.108 77.154 138.193 77.4207 138.092 77.5541C137.836 77.9062 137.494 78.1996 137.19 78.5144C136.881 78.2103 136.47 77.9489 136.288 77.5808C136.134 77.2713 136.219 76.8285 136.24 76.4444C136.272 75.8523 136.529 75.3668 137.201 75.4041C137.841 75.4361 138.108 75.8949 138.118 76.5031C138.118 76.6525 138.118 76.7965 138.118 76.9459H138.102H138.108Z" fill="black"/>
<path fill-rule="evenodd" clip-rule="evenodd" d="M179.778 5.04243C180.189 5.81064 180.573 6.53618 180.979 7.28306C179.72 7.67784 179.608 7.62449 179.223 6.54685C179.005 5.92267 178.722 5.39452 177.826 5.58124V7.29374C176.807 7.68852 176.593 7.57115 176.583 6.67489C176.572 5.55457 176.609 4.42892 176.572 3.3086C176.54 2.50303 176.86 2.15626 177.682 2.26296C178.002 2.30564 178.338 2.26296 178.669 2.26829C179.479 2.27896 180.274 2.407 180.584 3.27125C180.899 4.14083 180.413 4.733 179.778 5.03709V5.04243ZM177.847 4.72233C178.38 4.54628 178.818 4.45025 179.186 4.23686C179.293 4.17817 179.282 3.61268 179.17 3.54866C178.797 3.34594 178.354 3.26592 177.847 3.10587V4.72233Z" fill="black"/>
</svg>
