<svg width="33" height="26" viewBox="0 0 33 26" fill="none" xmlns="http://www.w3.org/2000/svg">
<path d="M31.0152 0.708949C30.8789 0.694673 30.7415 0.694673 30.6052 0.708949H2.6052C2.42574 0.71176 2.24747 0.73911 2.0752 0.790264L16.5252 15.4167L31.0152 0.708949Z" fill="#A01A18"/>
<path d="M32.4952 2.12207L17.9352 16.8603C17.5605 17.2389 17.0536 17.4514 16.5252 17.4514C15.9969 17.4514 15.49 17.2389 15.1152 16.8603L0.685234 2.23388C0.640874 2.3996 0.617353 2.57036 0.615234 2.74209V23.0707C0.615234 23.6098 0.825948 24.1269 1.20102 24.5081C1.57609 24.8894 2.0848 25.1035 2.61523 25.1035H30.6152C31.1457 25.1035 31.6544 24.8894 32.0294 24.5081C32.4045 24.1269 32.6152 23.6098 32.6152 23.0707V2.74209C32.6073 2.53032 32.5668 2.32112 32.4952 2.12207ZM3.98523 23.0707H2.59523V21.6172L9.86523 14.2887L11.2752 15.7219L3.98523 23.0707ZM30.5952 23.0707H29.1952L21.9052 15.7219L23.3152 14.2887L30.5852 21.6172L30.5952 23.0707Z" fill="#A01A18"/>
</svg>
