<svg width="287" height="73" viewBox="0 0 287 73" fill="none" xmlns="http://www.w3.org/2000/svg">
<rect x="0.722656" y="0.643555" width="64.2371" height="30.7124" fill="white"/>
<rect x="0.722656" y="41.3237" width="64.2371" height="30.7124" fill="white"/>
<rect x="74.5493" y="0.643555" width="64.2371" height="30.7124" fill="white"/>
<rect x="74.5493" y="41.3237" width="64.2371" height="30.7124" fill="white"/>
<rect x="148.375" y="0.643555" width="64.2371" height="30.7124" fill="white"/>
<rect x="148.375" y="41.3237" width="64.2371" height="30.7124" fill="white"/>
<rect x="222.202" y="0.643555" width="64.2371" height="30.7124" fill="white"/>
<rect x="222.202" y="41.3237" width="64.2371" height="30.7124" fill="white"/>
<path d="M103.577 23.2882H99.7856L102.156 8.72266H105.948L103.577 23.2882Z" fill="#A01A18"/>
<path d="M96.5951 8.72412L92.98 18.7414L92.5519 16.5836L91.2763 10.0351C91.2763 10.0351 91.1224 8.72412 89.4773 8.72412H83.5013L83.4312 8.9695C83.4312 8.9695 85.2594 9.34965 87.3976 10.6351L90.6921 23.2888H94.6423L100.676 8.72412H96.5951Z" fill="#A01A18"/>
<path d="M126.422 23.2888H129.904L126.868 8.72412H123.82C122.412 8.72412 122.069 9.80973 122.069 9.80973L116.414 23.2888H120.364L121.154 21.1254H125.978L126.422 23.2888ZM122.25 18.1363L124.242 12.6855L125.363 18.1363H122.25Z" fill="#A01A18"/>
<path d="M116.71 12.2257L117.251 9.09576C117.251 9.09576 115.581 8.46094 113.84 8.46094C111.959 8.46094 107.49 9.28397 107.49 13.283C107.49 17.0473 112.735 17.0938 112.735 19.0689C112.735 21.044 108.031 20.6917 106.478 19.4453L105.914 22.7151C105.914 22.7151 107.607 23.5382 110.195 23.5382C112.782 23.5382 116.687 22.2011 116.687 18.5525C116.687 14.7659 111.395 14.4132 111.395 12.7667C111.395 11.1201 115.087 11.3316 116.71 12.2257Z" fill="#A01A18"/>
<path d="M92.5524 16.5846L91.2763 10.0351C91.2763 10.0351 91.1224 8.72412 89.4773 8.72412H83.5013L83.4312 8.9695C83.4312 8.9695 86.3036 9.56528 89.0595 11.7955C91.6931 13.9291 92.5524 16.5846 92.5524 16.5846Z" fill="#A01A18"/>
<path d="M260.455 62.4877C260.033 62.4893 259.614 62.407 259.223 62.2457C258.832 62.0844 258.477 61.8473 258.179 61.548L254.89 58.2573C254.774 58.1461 254.619 58.084 254.458 58.084C254.297 58.084 254.142 58.1461 254.026 58.2573L250.726 61.5571C250.428 61.8568 250.073 62.0944 249.682 62.2561C249.291 62.4179 248.872 62.5006 248.45 62.4996H247.806L251.973 66.6668C252.598 67.2905 253.445 67.6407 254.328 67.6407C255.211 67.6407 256.058 67.2905 256.683 66.6668L260.858 62.4905L260.455 62.4877Z" fill="#A01A18"/>
<path d="M248.45 50.8587C248.873 50.8576 249.292 50.9403 249.683 51.102C250.074 51.2638 250.429 51.5014 250.727 51.8012L254.027 55.1016C254.141 55.216 254.297 55.2802 254.459 55.2802C254.621 55.2802 254.776 55.216 254.891 55.1016L258.179 51.8137C258.477 51.5136 258.832 51.2756 259.222 51.1137C259.613 50.9518 260.032 50.8691 260.455 50.8705H260.851L256.676 46.6949C256.366 46.3856 255.999 46.1402 255.595 45.9728C255.191 45.8054 254.758 45.7192 254.321 45.7192C253.883 45.7192 253.45 45.8054 253.046 45.9728C252.642 46.1402 252.275 46.3856 251.966 46.6949L247.806 50.8587H248.45Z" fill="#A01A18"/>
<path d="M264.306 54.3249L261.782 51.8016C261.725 51.8249 261.665 51.8372 261.603 51.8378H260.456C259.859 51.8393 259.286 52.0764 258.863 52.4976L255.575 55.7835C255.279 56.079 254.878 56.245 254.459 56.245C254.041 56.245 253.64 56.079 253.344 55.7835L250.043 52.4851C249.62 52.0636 249.048 51.8262 248.451 51.8246H247.042C246.984 51.8233 246.927 51.8117 246.873 51.7905L244.333 54.3249C243.71 54.9499 243.359 55.7968 243.359 56.6798C243.359 57.5627 243.71 58.4096 244.333 59.0346L246.867 61.5683C246.921 61.5467 246.978 61.5352 247.036 61.5343H248.451C249.048 61.5325 249.62 61.2951 250.043 60.8738L253.343 57.574C253.94 56.9781 254.979 56.9781 255.575 57.574L258.863 60.8612C259.286 61.2824 259.859 61.5196 260.456 61.5211H261.603C261.665 61.5215 261.725 61.5338 261.782 61.5572L264.306 59.0339C264.615 58.7247 264.86 58.3576 265.028 57.9535C265.195 57.5495 265.281 57.1164 265.281 56.6791C265.281 56.2417 265.195 55.8086 265.028 55.4046C264.86 55.0005 264.615 54.6334 264.306 54.3242" fill="#A01A18"/>
<path d="M98.3522 48.6538H94.5304C92.8418 48.7335 91.4612 49.4138 91.0624 50.8165C90.8547 51.5477 90.7403 52.3513 90.5776 53.1094C89.752 56.9652 89.0193 60.9268 88.229 64.7054H117.985C120.285 64.7054 121.864 64.2192 122.291 62.3937C122.489 61.5451 122.679 60.5859 122.869 59.6532C123.607 56.02 124.349 52.3874 125.106 48.6538H98.3522Z" fill="#A01A18"/>
<path d="M98.0442 54.3654C98.2043 54.2547 98.4105 53.7533 98.1752 53.5442C98.1014 53.4781 97.9756 53.4589 97.8018 53.4884C97.6402 53.5154 97.5476 53.5703 97.4845 53.6563C97.3831 53.7943 97.2901 54.2097 97.4476 54.3654C97.6052 54.5211 97.9424 54.4355 98.0442 54.3654ZM95.7749 53.549C95.6598 54.2957 95.5303 55.0273 95.4004 55.7589C94.5659 55.7677 93.7144 55.7998 92.9097 55.7401C93.0617 55.0243 93.1706 54.2643 93.3215 53.549H92.4209C92.0992 55.3748 91.8066 57.2294 91.4473 59.0173H92.3648C92.5087 58.1001 92.6434 57.1726 92.833 56.3019C93.6151 56.2828 94.553 56.2492 95.3048 56.3208C95.1499 57.2269 94.9625 58.1005 94.8179 59.0173H95.7354C96.0305 57.1649 96.3412 55.328 96.7094 53.549H95.7749ZM108.703 55.0926C107.991 54.8052 107.432 55.2907 107.173 55.7456C107.232 55.543 107.256 55.3062 107.304 55.0926H106.593C106.419 56.4366 106.164 57.6987 105.921 58.973H106.724C106.834 58.2167 106.885 57.197 107.134 56.4731C107.333 55.895 107.855 55.4032 108.61 55.6711C108.618 55.4575 108.679 55.2948 108.701 55.0926H108.703ZM109.151 58.0809C109.078 57.8898 109.058 57.574 109.078 57.3342C109.119 56.7948 109.316 56.1385 109.619 55.8411C110.037 55.4309 110.864 55.4988 111.522 55.7305C111.543 55.5091 111.587 55.3102 111.616 55.0959C110.535 54.9195 109.51 55.0295 108.966 55.5999C108.429 56.1558 108.082 57.4397 108.328 58.2495C108.617 59.1948 109.912 59.2457 110.96 58.8841C111.006 58.6941 111.031 58.4823 111.071 58.2868C110.499 58.5816 109.404 58.7373 109.149 58.0798L109.151 58.0809ZM118.166 55.1125C117.456 54.758 116.866 55.3527 116.636 55.7094C116.701 55.525 116.705 55.2815 116.766 55.0937H116.056C115.864 56.4255 115.634 57.7187 115.365 58.973H116.186C116.191 58.4587 116.292 58.0784 116.373 57.574C116.544 56.4971 116.796 55.3158 118.052 55.6711C118.094 55.4888 118.111 55.2822 118.163 55.1114L118.166 55.1125ZM97.2207 55.1376C97.1993 55.1409 97.2008 55.1667 97.2023 55.1929C97.0278 56.5001 96.7909 57.7452 96.5382 58.9741H97.3366C97.5295 57.6434 97.7501 56.3407 98.0268 55.0937L97.2244 55.1376H97.2207ZM104.28 55.0387C103.7 55.0834 103.21 55.2501 102.861 55.6172C102.434 56.0673 102.087 57.0623 102.19 57.9688C102.334 59.2601 103.944 59.2154 105.232 58.9022C105.254 58.6749 105.309 58.4812 105.342 58.2676C104.812 58.4661 103.891 58.7428 103.345 58.3982C102.932 58.1367 102.932 57.477 103.065 56.904C103.93 56.8764 104.83 56.8815 105.697 56.904C105.752 56.4982 105.909 56.0555 105.77 55.6534C105.589 55.1236 104.94 54.9863 104.278 55.0376L104.28 55.0387ZM105.045 56.4606H103.16C103.201 56.2056 103.33 55.973 103.524 55.8026C103.718 55.6321 103.965 55.5345 104.223 55.5264C104.802 55.5043 105.216 55.7386 105.045 56.4595L105.045 56.4606ZM101.233 55.1365C100.556 54.8823 99.7302 55.1859 99.3724 55.4748C99.3724 55.4873 99.3639 55.4892 99.3532 55.4903L99.3724 55.4748C99.3725 55.4737 99.3725 55.4726 99.3724 55.4715C99.3783 55.3475 99.4222 55.2608 99.4281 55.1365H98.7393C98.4526 57.0453 98.1121 58.8996 97.7535 60.7373H98.5533C98.6692 60.0219 98.7455 59.2674 98.9068 58.5975C99.0912 59.3021 100.283 59.1675 100.786 58.8952C101.825 58.3333 102.626 55.66 101.233 55.1365ZM100.601 58.2665C100.172 58.721 99.1163 58.7144 99.0337 57.9489C98.9968 57.6168 99.1215 57.2671 99.1831 56.9225C99.2447 56.5779 99.2897 56.2392 99.351 55.9334C99.7738 55.4169 101.017 55.3545 101.143 56.2134C101.252 56.9583 100.957 57.8898 100.601 58.2665ZM121.149 53.4165C121.081 54.019 120.989 54.5971 120.87 55.1505C118.903 54.5277 117.697 55.9751 117.719 57.7611C117.723 58.1064 117.783 58.4488 117.998 58.6934C118.371 59.114 119.437 59.2151 119.975 58.8609C120.079 58.7926 120.185 58.6679 120.254 58.5812C120.306 58.5163 120.389 58.3458 120.404 58.3968C120.375 58.586 120.333 58.7613 120.33 58.9745H121.057C121.197 56.9642 121.631 55.2483 121.952 53.4183L121.149 53.4165ZM119.359 58.565C118.819 58.5764 118.55 58.2422 118.537 57.6877C118.516 56.7166 118.943 55.6382 119.807 55.5412C120.209 55.4962 120.501 55.5899 120.796 55.6906C120.525 56.7812 120.623 58.5377 119.359 58.565ZM112.434 55.0911C112.395 55.3125 112.334 55.5135 112.287 55.7257C112.761 55.6069 114.235 55.2427 114.377 55.8732C114.425 56.0835 114.343 56.3064 114.284 56.4705C112.951 56.3444 111.864 56.5657 111.578 57.5157C111.386 58.1522 111.599 58.7782 112.007 58.9546C112.792 59.2911 113.748 58.9055 114.079 58.3761C114.035 58.572 114.017 58.7725 114.023 58.973H114.713C114.721 58.3119 114.817 57.7766 114.919 57.1815C115.005 56.6746 115.168 56.1728 115.142 55.7257C115.083 54.7011 113.386 55.0634 112.436 55.0911H112.434ZM113.742 58.2495C113.328 58.6554 112.167 58.7694 112.286 57.8017C112.385 56.9978 113.26 56.8269 114.208 56.9428C114.138 57.3826 114.057 57.9411 113.742 58.2495Z" fill="white"/>
<path d="M15.45 10.5967C16.2153 10.3422 17.0257 10.2528 17.828 10.3344C18.6303 10.4159 19.4062 10.6666 20.1046 11.0699C20.8029 11.4732 21.4078 12.02 21.8795 12.6741C22.3511 13.3283 22.6787 14.075 22.8407 14.865L26.7477 14.0685C26.4732 12.7255 25.9169 11.456 25.1154 10.3439C24.3139 9.23184 23.2856 8.30247 22.0984 7.61724C20.9112 6.932 19.592 6.50649 18.2282 6.36881C16.8643 6.23114 15.4868 6.38444 14.1865 6.81858L15.45 10.5967Z" fill="#A01A18"/>
<path d="M10.8414 23.2546L13.4837 20.2681C12.8797 19.7337 12.396 19.077 12.0648 18.3416C11.7336 17.6062 11.5623 16.8088 11.5623 16.0022C11.5623 15.1957 11.7336 14.3983 12.0648 13.6629C12.396 12.9275 12.8797 12.2708 13.4837 11.7363L10.8414 8.74756C9.81433 9.65636 8.99195 10.7729 8.42871 12.0234C7.86548 13.2738 7.57422 14.6296 7.57422 16.0011C7.57422 17.3725 7.86548 18.7283 8.42871 19.9787C8.99195 21.2292 9.81433 22.3458 10.8414 23.2546Z" fill="#A01A18"/>
<path d="M22.841 17.1431C22.5775 18.4287 21.8783 19.5839 20.8614 20.4134C19.8446 21.2429 18.5724 21.6959 17.2601 21.6957C16.6455 21.6967 16.0349 21.5969 15.4527 21.4001L14.188 25.1841C15.4875 25.6161 16.8638 25.7679 18.2262 25.6298C19.5886 25.4916 20.9064 25.0666 22.0927 24.3825C23.2791 23.6985 24.3072 22.771 25.1093 21.6612C25.9115 20.5513 26.4696 19.2841 26.7468 17.943L22.841 17.1431Z" fill="#A01A18"/>
<path d="M30.163 20.3925C30.0115 20.1401 29.8764 19.8782 29.7586 19.6085C29.1484 18.2313 29.1029 16.6696 29.632 15.2592C30.2061 13.6942 31.3035 12.4981 32.7219 11.8861C34.5045 11.1175 36.4746 11.2689 38.1839 12.2829C39.2689 12.9049 40.0375 13.8656 40.6217 15.2261C40.695 15.4035 40.7606 15.5856 40.8262 15.7447L30.163 20.3925ZM33.7235 14.1944C32.4564 14.7383 31.8043 15.9268 31.9409 17.3174L37.3018 15.0115C36.3806 13.9265 35.1798 13.5677 33.7235 14.1944ZM37.9693 19.2165V19.2194L37.8575 19.1432C37.5365 19.6617 37.0387 20.0839 36.409 20.357C35.2105 20.8779 34.1001 20.7437 33.3013 20.0437L33.2274 20.1548L31.8676 22.1905C32.2059 22.4246 32.5677 22.6228 32.9472 22.7818C34.4496 23.4067 35.9868 23.376 37.4998 22.7185C38.5948 22.2455 39.4545 21.52 40.0422 20.6024L37.9693 19.2165ZM44.5464 8.86955V20.1808L46.3137 20.8939L45.3085 23.2252L43.3574 22.4164C42.9661 22.2468 42.6324 21.9675 42.3966 21.6123C42.1802 21.2806 42.02 20.8229 42.02 20.211V8.86719L44.5464 8.86955ZM49.1056 17.3245C49.1055 16.8667 49.2036 16.4143 49.3933 15.9978C49.583 15.5812 49.8599 15.2102 50.2053 14.9098L48.4002 12.8995C47.7738 13.4539 47.2721 14.1349 46.9284 14.8976C46.5846 15.6602 46.4066 16.4871 46.4061 17.3236C46.4056 18.1601 46.5826 18.9872 46.9255 19.7502C47.2683 20.5133 47.7691 21.1949 48.3949 21.75L50.1982 19.7398C49.8546 19.4394 49.5793 19.0688 49.3908 18.6532C49.2023 18.2375 49.1051 17.7862 49.1056 17.3298V17.3245ZM52.3119 20.5338C51.9664 20.5332 51.6232 20.4769 51.2956 20.3671L50.4329 22.929C51.226 23.1942 52.0663 23.2884 52.8984 23.2053C53.7305 23.1221 54.5356 22.8636 55.2605 22.4466C55.9854 22.0297 56.6137 21.4639 57.104 20.7864C57.5943 20.109 57.9355 19.3353 58.105 18.5164L55.455 17.9749C55.3065 18.6984 54.9124 19.3484 54.3397 19.8148C53.7669 20.2813 53.0506 20.5355 52.3119 20.5344V20.5338ZM52.3196 11.4149C51.683 11.4145 51.0504 11.5162 50.4459 11.7158L51.3003 14.2801C51.7312 14.1366 52.1876 14.0861 52.6394 14.1322C53.0913 14.1783 53.5281 14.3197 53.9212 14.5473C54.3142 14.7748 54.6545 15.0833 54.9194 15.4521C55.1843 15.821 55.3679 16.242 55.458 16.6871L58.108 16.1514C57.8369 14.8157 57.1127 13.6147 56.0579 12.7516C55.0031 11.8885 53.6825 11.4163 52.3196 11.4149Z" fill="#A01A18"/>
<path d="M256.931 28.0212C263.516 28.0532 269.527 22.6623 269.527 16.104C269.527 8.93279 263.516 3.97597 256.931 3.97803H251.264C244.6 3.97597 239.114 8.93397 239.114 16.104C239.114 22.6638 244.6 28.0532 251.264 28.0212H256.931Z" fill="#A01A18"/>
<path d="M253.792 22.4897V9.46741C256.415 10.4715 258.277 13.0057 258.281 15.9781C258.277 18.9511 256.415 21.4838 253.792 22.4897ZM244.302 15.9781C244.308 13.0075 246.167 10.4748 248.788 9.46771V22.4871C246.167 21.4809 244.308 18.9496 244.302 15.9781ZM251.29 4.97168C245.201 4.97374 240.267 9.89942 240.265 15.9781C240.267 22.0562 245.201 26.981 251.29 26.9828C257.382 26.981 262.317 22.0562 262.318 15.9781C262.317 9.89942 257.382 4.97374 251.29 4.97168Z" fill="white"/>
<path d="M164.953 25.0862V17.2192H173.283L174.176 18.3845L175.1 17.2192H205.339V24.5436C205.339 24.5436 204.55 25.0764 203.635 25.0862H186.892L185.882 23.8471V25.0862H182.581V22.9693C182.581 22.9693 182.13 23.2657 181.155 23.2657H180.029V25.0893H175.031L174.137 23.8987L173.233 25.0893H164.953V25.0862Z" fill="#A01A18"/>
<path d="M155.228 11.2915L157.106 6.91016H160.359L161.423 9.36261V6.91016H165.461L166.094 8.68315L166.707 6.91016H184.837V7.79924C184.837 7.79924 185.793 6.91016 187.354 6.91016L193.237 6.92978L194.287 9.35125V6.91016H197.668L198.597 8.30418V6.91016H202.009V14.7782H198.597L197.708 13.3815V14.7782H192.744L192.247 13.539H190.911L190.418 14.7782H187.053C185.706 14.7782 184.842 13.904 184.842 13.904V14.7782H179.758L178.748 13.539V14.7782H159.874L159.377 13.539H158.046L157.548 14.7782H155.228V11.2915Z" fill="#A01A18"/>
<path d="M157.769 7.87988L155.239 13.7658H156.885L157.35 12.5855H160.07L160.535 13.7658H162.223L159.693 7.87988H157.769ZM158.709 9.25171L159.535 11.3113H157.88L158.709 9.25171Z" fill="white"/>
<path d="M162.396 13.7682V7.88232L164.743 7.89265L166.104 11.6906L167.435 7.88232H169.761V13.7734H168.29V9.43279L166.728 13.7734H165.437L163.87 9.42763V13.7682H162.396Z" fill="white"/>
<path d="M170.771 13.7682V7.88232H175.572V9.19891H172.257V10.2088H175.498V11.4479H172.257V12.4929H175.573V13.7739L170.771 13.7682Z" fill="white"/>
<path d="M176.428 7.87988V13.773H177.9V11.6778H178.519L180.288 13.773H182.086L180.147 11.6045C180.594 11.5605 181.008 11.3504 181.307 11.0158C181.607 10.6812 181.77 10.2465 181.764 9.79745C181.764 8.55831 180.79 7.88711 179.705 7.88711L176.429 7.88195L176.428 7.87988ZM177.9 9.19647H179.582C179.985 9.19647 180.281 9.51296 180.281 9.81603C180.281 10.2074 179.899 10.4356 179.603 10.4356H177.899V9.19647H177.9Z" fill="white"/>
<path d="M183.867 13.7682H182.365V7.88232H183.867V13.7682Z" fill="white"/>
<path d="M187.435 13.7678H187.108C185.536 13.7678 184.586 12.5323 184.586 10.8492C184.586 9.12625 185.531 7.87988 187.51 7.87988H189.138V9.27391H187.45C186.646 9.27391 186.073 9.90226 186.073 10.8616C186.073 12.0021 186.727 12.4791 187.661 12.4791H188.048L187.435 13.7678Z" fill="white"/>
<path d="M190.639 7.87988L188.109 13.773H189.757L190.222 12.5922H192.94L193.405 13.773H195.092L192.563 7.87988H190.639ZM191.575 9.25171L192.401 11.3113H190.745L191.575 9.25171Z" fill="white"/>
<path d="M195.261 13.7678V7.88195H197.135L199.526 11.5828V7.87988H200.998V13.773H199.185L196.733 9.97506V13.773H195.261V13.7678Z" fill="white"/>
<path d="M165.963 24.0768V18.1909H170.771V19.508H167.455V20.5179H170.695V21.757H167.455V22.8021H170.771V24.0778L165.963 24.0768Z" fill="white"/>
<path d="M189.51 24.0768V18.1909H194.317V19.508H191.001V20.5179H194.227V21.757H191.001V22.8021H194.317V24.0778L189.51 24.0768Z" fill="white"/>
<path d="M170.957 24.0769L173.298 21.1685L170.902 18.1895H172.755L174.182 20.0332L175.614 18.1895H177.398L175.031 21.1324L177.377 24.0754H175.523L174.137 22.2621L172.785 24.0754L170.957 24.0769Z" fill="white"/>
<path d="M177.553 18.1895V24.0821H179.064V22.2234H180.617C181.928 22.2234 182.923 21.5248 182.923 20.1736C182.923 19.0532 182.144 18.1941 180.806 18.1941H177.553L177.553 18.1895ZM179.064 19.5205H180.698C181.119 19.5205 181.426 19.7817 181.426 20.1989C181.426 20.5908 181.125 20.8768 180.692 20.8768H179.064V19.5205Z" fill="white"/>
<path d="M183.556 18.1895V24.0754H185.028V21.9822H185.648L187.416 24.0769H189.214L187.28 21.9084C187.727 21.8641 188.141 21.654 188.441 21.3195C188.74 20.9849 188.903 20.5503 188.898 20.1013C188.898 18.8622 187.923 18.191 186.838 18.191L183.556 18.1895ZM185.033 19.5081H186.716C187.118 19.5081 187.415 19.8246 187.415 20.1277C187.415 20.5195 187.032 20.7472 186.736 20.7472H185.032L185.033 19.5081Z" fill="white"/>
<path d="M195 24.0769V22.7959H197.949C198.386 22.7959 198.572 22.56 198.572 22.3039C198.572 22.0576 198.386 21.8062 197.949 21.8062H196.617C195.462 21.8062 194.814 21.103 194.814 20.043C194.814 19.0987 195.407 18.1895 197.125 18.1895H199.994L199.374 19.5153H196.893C196.421 19.5153 196.274 19.7668 196.274 20.0027C196.274 20.249 196.454 20.5154 196.816 20.5154H198.215C199.506 20.5154 200.064 21.2486 200.064 22.2084C200.064 23.2379 199.441 24.0821 198.145 24.0821H195V24.0769Z" fill="white"/>
<path d="M200.415 24.0769V22.7959H203.53C203.995 22.7959 204.188 22.56 204.188 22.3039C204.188 22.0576 203.987 21.8062 203.53 21.8062H202.123C200.903 21.8062 200.22 21.103 200.22 20.043C200.22 19.0987 200.842 18.1895 202.661 18.1895H205.691L205.037 19.5153H202.418C201.915 19.5153 201.765 19.7668 201.765 20.0027C201.765 20.249 201.956 20.5154 202.337 20.5154H203.807C205.168 20.5154 205.761 21.2486 205.761 22.2084C205.761 23.2379 205.102 24.0821 203.731 24.0821H200.415V24.0769Z" fill="white"/>
<path d="M162.77 56.6801V65.853H162.988H163.205V56.6801V47.5072H162.988H162.77V56.6801Z" fill="#A01A18"/>
<path d="M163.516 56.6801V65.853H163.609H163.703V56.6801V47.5072H163.609H163.516V56.6801Z" fill="#A01A18"/>
<path d="M164.231 56.6801V65.853H164.325H164.418V56.6801V47.5072H164.325H164.231V56.6801Z" fill="#A01A18"/>
<path d="M165.475 56.6801V65.853H165.926H166.377V56.6801V47.5072H165.926H165.475V56.6801Z" fill="#A01A18"/>
<path d="M166.688 56.6801V65.853H166.781H166.875V56.6801V47.5072H166.781H166.688V56.6801Z" fill="#A01A18"/>
<path d="M167.186 56.6801V65.853H167.528H167.87V56.6801V47.5072H167.528H167.186V56.6801Z" fill="#A01A18"/>
<path d="M168.181 56.6801V65.853H168.507H168.834V56.6801V47.5072H168.507H168.181V56.6801Z" fill="#A01A18"/>
<path d="M169.145 56.6801V65.853H169.238H169.331V56.6801V47.5072H169.238H169.145V56.6801Z" fill="#A01A18"/>
<path d="M170.108 56.6801V65.853H170.326H170.544V56.6801V47.5072H170.326H170.108V56.6801Z" fill="#A01A18"/>
<path d="M170.854 56.6801V65.853H170.948H171.041V56.6801V47.5072H170.948H170.854V56.6801Z" fill="#A01A18"/>
<path d="M172.067 56.6801V65.853H172.285H172.503V56.6801V47.5072H172.285H172.067V56.6801Z" fill="#A01A18"/>
<path d="M172.813 56.6801V65.853H172.907H173V56.6801V47.5072H172.907H172.813V56.6801Z" fill="#A01A18"/>
<path d="M173.56 56.6801V65.853H173.762H173.964V56.6801V47.5072H173.762H173.56V56.6801Z" fill="#A01A18"/>
<path d="M175.021 56.6801V65.853H175.114H175.208V56.6801V47.5072H175.114H175.021V56.6801Z" fill="#A01A18"/>
<path d="M175.768 56.6801V65.853H175.861H175.954V56.6801V47.5072H175.861H175.768V56.6801Z" fill="#A01A18"/>
<path d="M176.265 56.6801V65.853H176.343H176.421V56.6801V47.5072H176.343H176.265V56.6801Z" fill="#A01A18"/>
<path d="M177.478 56.6801V65.853H177.695H177.913V56.6801V47.5072H177.695H177.478V56.6801Z" fill="#A01A18"/>
<path d="M178.193 56.6801V65.853H178.286H178.379V56.6801V47.5072H178.286H178.193V56.6801Z" fill="#A01A18"/>
<path d="M178.939 56.6801V65.853H179.032H179.126V56.6801V47.5072H179.032H178.939V56.6801Z" fill="#A01A18"/>
<path d="M179.437 56.6801V65.853H179.53H179.623V56.6801V47.5072H179.53H179.437V56.6801Z" fill="#A01A18"/>
<path d="M180.152 56.6801V65.853H180.618H181.085V56.6801V47.5072H180.618H180.152V56.6801Z" fill="#A01A18"/>
<path d="M181.644 56.6801V65.853H181.737H181.831V56.6801V47.5072H181.737H181.644V56.6801Z" fill="#A01A18"/>
<path d="M182.142 56.6801V65.853H182.344H182.546V56.6801V47.5072H182.344H182.142V56.6801Z" fill="#A01A18"/>
<path d="M183.106 56.6801V65.853H183.199H183.293V56.6801V47.5072H183.199H183.106V56.6801Z" fill="#A01A18"/>
<path d="M184.318 56.6801V65.853H184.412H184.505V56.6801V47.5072H184.412H184.318V56.6801Z" fill="#A01A18"/>
<path d="M185.531 56.6801V65.853H185.625H185.718V56.6801V47.5072H185.625H185.531V56.6801Z" fill="#A01A18"/>
<path d="M186.277 56.6801V65.853H186.495H186.713V56.6801V47.5072H186.495H186.277V56.6801Z" fill="#A01A18"/>
<path d="M187.024 56.6801V65.853H187.117H187.21V56.6801V47.5072H187.117H187.024V56.6801Z" fill="#A01A18"/>
<path d="M188.236 56.6801V65.853H188.454H188.672V56.6801V47.5072H188.454H188.236V56.6801Z" fill="#A01A18"/>
<path d="M188.983 56.6801V65.853H189.076H189.169V56.6801V47.5072H189.076H188.983V56.6801Z" fill="#A01A18"/>
<path d="M189.713 56.6801V65.853H189.8H189.884V56.6801V47.5072H189.8H189.713V56.6801Z" fill="#A01A18"/>
<path d="M190.444 56.6801V65.853H190.537H190.63V56.6801V47.5072H190.537H190.444V56.6801Z" fill="#A01A18"/>
<path d="M190.941 56.6801V65.853H191.159H191.377V56.6801V47.5072H191.159H190.941V56.6801Z" fill="#A01A18"/>
<path d="M192.403 56.6801V65.853H192.496H192.589V56.6801V47.5072H192.496H192.403V56.6801Z" fill="#A01A18"/>
<path d="M192.9 56.6801V65.853H193.351H193.802V56.6801V47.5072H193.351H192.9V56.6801Z" fill="#A01A18"/>
<path d="M194.113 56.6801V65.853H194.455H194.797V56.6801V47.5072H194.455H194.113V56.6801Z" fill="#A01A18"/>
<path d="M195.108 56.6801V65.853H195.326H195.544V56.6801V47.5072H195.326H195.108V56.6801Z" fill="#A01A18"/>
<path d="M196.321 56.6801V65.853H196.663H197.005V56.6801V47.5072H196.663H196.321V56.6801Z" fill="#A01A18"/>
<path d="M197.285 56.6801V65.853H197.378H197.472V56.6801V47.5072H197.378H197.285V56.6801Z" fill="#A01A18"/>
<path d="M197.782 56.6801V65.853H198H198.218V56.6801V47.5072H198H197.782V56.6801Z" fill="#A01A18"/>
<path d="M48.0541 68.6677V68.731H48.1133C48.1243 68.7313 48.1353 68.7285 48.1449 68.7231C48.1488 68.7203 48.1519 68.7167 48.154 68.7124C48.1561 68.7082 48.1571 68.7035 48.1569 68.6987C48.1571 68.6941 48.1561 68.6895 48.1539 68.6854C48.1518 68.6814 48.1487 68.6779 48.1449 68.6753C48.1354 68.6695 48.1244 68.6666 48.1133 68.6671H48.0541V68.6677ZM48.1139 68.6228C48.1393 68.6213 48.1644 68.6285 48.185 68.6434C48.1933 68.6502 48.1998 68.6588 48.2041 68.6686C48.2084 68.6784 48.2103 68.689 48.2097 68.6997C48.2102 68.7088 48.2086 68.718 48.2052 68.7265C48.2017 68.735 48.1965 68.7427 48.1898 68.749C48.1739 68.7626 48.1541 68.7708 48.1332 68.7724L48.2122 68.8628H48.1512L48.0785 68.773H48.0548V68.8628H48.0039V68.6231H48.1133L48.1139 68.6228ZM48.0981 68.9454C48.1248 68.9457 48.1514 68.9403 48.1759 68.9295C48.2235 68.9089 48.2615 68.8709 48.2821 68.8233C48.2926 68.7983 48.298 68.7714 48.298 68.7443C48.298 68.7171 48.2926 68.6902 48.2821 68.6652C48.2615 68.6176 48.2235 68.5796 48.1759 68.559C48.1512 68.5488 48.1247 68.5438 48.0981 68.5441C48.0646 68.5435 48.0316 68.5513 48.002 68.5669C47.9724 68.5824 47.9471 68.6051 47.9286 68.633C47.91 68.6608 47.8988 68.6928 47.8959 68.7262C47.8929 68.7595 47.8984 68.793 47.9118 68.8236C47.9215 68.8473 47.936 68.8689 47.9542 68.8869C47.9724 68.9051 47.9938 68.9197 48.0175 68.9299C48.0424 68.9406 48.0693 68.946 48.0965 68.9457M48.0965 68.4865C48.1662 68.4863 48.2331 68.5136 48.2827 68.5624C48.3194 68.5985 48.3443 68.6447 48.3543 68.6952C48.3642 68.7456 48.3588 68.7978 48.3387 68.8451C48.3254 68.8758 48.3064 68.9037 48.2827 68.9273C48.2584 68.9505 48.2301 68.9692 48.1993 68.9827C48.1665 68.9962 48.1315 69.0032 48.096 69.0032C48.0606 69.0032 48.0255 68.9962 47.9928 68.9827C47.9616 68.9696 47.933 68.9509 47.9087 68.9273C47.8849 68.9028 47.8661 68.8739 47.8533 68.8423C47.8401 68.8109 47.8332 68.7772 47.8331 68.7432C47.8329 68.7091 47.8396 68.6754 47.8526 68.6439C47.8656 68.6125 47.8848 68.5839 47.909 68.5599C47.9332 68.536 47.9619 68.517 47.9934 68.5043C48.0263 68.4904 48.0617 68.4834 48.0975 68.4837M23.8446 67.561C23.8446 67.1041 24.1437 66.7288 24.6332 66.7288C25.1006 66.7288 25.4162 67.088 25.4162 67.561C25.4162 68.0341 25.0999 68.3933 24.6332 68.3933C24.1437 68.3933 23.8446 68.0179 23.8446 67.561ZM25.9493 67.561V66.2617H25.3855V66.5779C25.2062 66.3439 24.9343 66.1985 24.5634 66.1985C23.8361 66.1985 23.2631 66.7699 23.2631 67.5635C23.2631 68.3572 23.8345 68.9286 24.5634 68.9286C24.933 68.9286 25.2052 68.7816 25.3855 68.5492V68.8654H25.9502V67.5623L25.9493 67.561ZM45.048 67.561C45.048 67.1041 45.3474 66.7288 45.8366 66.7288C46.3049 66.7288 46.6198 67.088 46.6198 67.561C46.6198 68.0341 46.3036 68.3933 45.8366 68.3933C45.3474 68.3933 45.048 68.0179 45.048 67.561ZM47.1533 67.561V65.2183H46.5904V66.5779C46.4111 66.3439 46.1392 66.1985 45.7683 66.1985C45.041 66.1985 44.4681 66.7699 44.4681 67.5635C44.4681 68.3572 45.0394 68.9286 45.7683 68.9286C46.1383 68.9286 46.4102 68.7816 46.5904 68.5492V68.8654H47.1561L47.1533 67.561ZM32.9671 66.7032C33.3317 66.7032 33.5654 66.9315 33.6251 67.3337H32.2759C32.336 66.9583 32.5639 66.7032 32.9668 66.7032M32.9782 66.1972C32.2161 66.1972 31.6817 66.7515 31.6817 67.5623C31.6817 68.3888 32.236 68.9276 33.0142 68.9276C33.4057 68.9276 33.7642 68.8296 34.0798 68.5631L33.8044 68.1435C33.5895 68.3156 33.3234 68.4113 33.048 68.4154C32.6838 68.4154 32.3524 68.2465 32.2708 67.7786H34.1997C34.205 67.7084 34.211 67.6372 34.211 67.5613C34.205 66.7509 33.7051 66.1963 32.9779 66.1963M39.8025 67.5613C39.8025 67.1044 40.1019 66.7291 40.5911 66.7291C41.0588 66.7291 41.3743 67.0883 41.3743 67.5613C41.3743 68.0344 41.0581 68.3936 40.5911 68.3936C40.1019 68.3936 39.8025 68.0182 39.8025 67.5613ZM41.9071 67.5613V66.2617H41.3421V66.5779C41.1622 66.3439 40.8909 66.1985 40.5199 66.1985C39.7927 66.1985 39.2197 66.7699 39.2197 67.5635C39.2197 68.3572 39.7911 68.9286 40.5199 68.9286C40.8899 68.9286 41.1612 68.7816 41.3421 68.5492V68.8654H41.9071V67.5613ZM36.6104 67.5613C36.6104 68.3499 37.1593 68.9264 37.997 68.9264C38.3887 68.9264 38.6496 68.8394 38.9317 68.6165L38.6588 68.1596C38.4466 68.312 38.2237 68.3936 37.9777 68.3936C37.5264 68.3882 37.1947 68.0619 37.1947 67.5613C37.1947 67.0608 37.5264 66.7348 37.9777 66.7291C38.223 66.7291 38.446 66.8107 38.6588 66.9631L38.9304 66.5062C38.6477 66.2832 38.3868 66.1963 37.9957 66.1963C37.1581 66.1963 36.6091 66.7724 36.6091 67.5613M43.8964 66.1963C43.5704 66.1963 43.3588 66.3487 43.2108 66.5757V66.2595H42.6521V68.8612H43.2181V67.4042C43.2181 66.9738 43.4028 66.7351 43.7724 66.7351C43.8934 66.7332 44.0136 66.7554 44.1259 66.8005L44.3002 66.2674C44.1709 66.2211 44.0346 66.1972 43.8973 66.1966M28.7455 66.4676C28.4735 66.2883 28.0988 66.1956 27.6855 66.1956C27.0269 66.1956 26.6029 66.5119 26.6029 67.0279C26.6029 67.4516 26.9191 67.7131 27.4996 67.7947L27.7668 67.8326C28.0767 67.8763 28.2231 67.9591 28.2231 68.1046C28.2231 68.3057 28.0172 68.4208 27.6305 68.4208C27.2391 68.4208 26.9564 68.2943 26.766 68.1488L26.5004 68.5896C26.8103 68.8179 27.2018 68.927 27.6258 68.927C28.3765 68.927 28.8115 68.5735 28.8115 68.0783C28.8115 67.6214 28.4691 67.3827 27.9034 67.3008L27.6372 67.2622C27.3924 67.2306 27.1964 67.1813 27.1964 67.007C27.1964 66.8173 27.381 66.7025 27.6912 66.7025C27.9758 66.7063 28.2547 66.7825 28.5017 66.9239L28.7464 66.467L28.7455 66.4676ZM36.0393 66.1963C35.7133 66.1963 35.5018 66.3487 35.3544 66.5757V66.2595H34.7944V68.8612H35.3598V67.4042C35.3598 66.9738 35.5445 66.7351 35.9141 66.7351C36.0351 66.7332 36.1553 66.7554 36.2676 66.8005L36.4419 66.2674C36.3126 66.2211 36.1764 66.1972 36.039 66.1966M31.2156 66.2617H30.2911V65.4731H29.7197V66.2617H29.1926V66.7784H29.7197V67.9645C29.7197 68.5675 29.9537 68.9267 30.6224 68.9267C30.8678 68.9267 31.1505 68.8508 31.3298 68.7256L31.1663 68.2418C31.0146 68.3323 30.8424 68.3829 30.6658 68.3888C30.3834 68.3888 30.2911 68.2146 30.2911 67.9537V66.779H31.2156V66.2617ZM22.7642 68.8619V67.2306C22.7642 66.6162 22.3727 66.2029 21.7415 66.1972C21.4095 66.1919 21.0674 66.2949 20.8277 66.6598C20.6484 66.3715 20.3661 66.1972 19.9686 66.1972C19.691 66.1972 19.4197 66.2788 19.2075 66.5833V66.2617H18.6431V68.8612H19.2122V67.42C19.2122 66.9688 19.4624 66.7291 19.8488 66.7291C20.2241 66.7291 20.4138 66.9735 20.4138 67.4143V68.8609H20.9852V67.4197C20.9852 66.9684 21.2461 66.7288 21.6214 66.7288C22.0072 66.7288 22.1906 66.9732 22.1906 67.414V68.8606L22.7642 68.8619Z" fill="#A01A18"/>
<path d="M48.3767 60.215V59.8356H48.2778L48.1633 60.0965L48.0501 59.835H47.9508V60.2144H48.0213V59.9298L48.1282 60.1768H48.2012L48.3081 59.9292V60.216H48.3777L48.3767 60.215ZM47.7488 60.215V59.8988H47.8752V59.8356H47.5518V59.8988H47.6782V60.215H47.7488Z" fill="#A01A18"/>
<path d="M29.1019 54.1476C29.1007 52.6653 29.4366 51.2021 30.0843 49.8687C30.732 48.5354 31.6745 47.3668 32.8404 46.4515C31.1168 45.0925 28.9851 44.3548 26.7902 44.3579C21.3831 44.3579 17.0005 48.7415 17.0005 54.1489C17.0005 59.5563 21.384 63.9376 26.7908 63.9376C28.9854 63.9411 31.1169 63.2039 32.8404 61.8453C31.6743 60.9297 30.7318 59.7609 30.0841 58.4273C29.4364 57.0936 29.1005 55.6302 29.1019 54.1476Z" fill="#A01A18"/>
<path d="M48.6821 54.1479C48.6821 59.5553 44.2992 63.9379 38.8925 63.9379C36.6971 63.9416 34.5647 63.2044 32.8403 61.8455C34.0055 60.9293 34.9474 59.7604 35.595 58.4271C36.2427 57.0939 36.5792 55.6309 36.5792 54.1487C36.5792 52.6664 36.2427 51.2035 35.595 49.8702C34.9474 48.5369 34.0055 47.3681 32.8403 46.4518C34.5643 45.092 36.6968 44.3539 38.8925 44.3569C44.2996 44.3569 48.6818 48.7405 48.6818 54.1479" fill="#A01A18"/>
<path fill-rule="evenodd" clip-rule="evenodd" d="M32.8404 61.4198C34.992 59.7263 36.3736 57.0985 36.3736 54.1479C36.3736 51.1973 34.9919 48.5695 32.8404 46.876C30.6888 48.5695 29.3071 51.1973 29.3071 54.1479C29.3071 57.0985 30.6888 59.7263 32.8404 61.4198Z" fill="#A01A18"/>
</svg>
