<svg width="25" height="26" viewBox="0 0 25 26" fill="none" xmlns="http://www.w3.org/2000/svg">
<path d="M22.6853 25.3696C19.8174 25.3696 17.0219 24.7197 14.2989 23.4199C11.5759 22.1201 9.16371 20.4027 7.06232 18.2677C4.96094 16.1327 3.27129 13.6808 1.99339 10.9122C0.715482 8.14356 0.0760846 5.30216 0.0751953 2.38799C0.0751953 1.98124 0.208588 1.64228 0.475374 1.37111C0.74216 1.09994 1.07564 0.964355 1.47582 0.964355H6.87824C7.18949 0.964355 7.46739 1.06604 7.71195 1.26942C7.9565 1.4728 8.10101 1.73267 8.14547 2.04903L9.01253 6.79449C9.05699 7.11086 9.05121 7.3992 8.99519 7.65952C8.93916 7.91985 8.81155 8.15124 8.61235 8.35372L5.41092 11.6755C6.34467 13.3026 7.51186 14.8279 8.91248 16.2515C10.3131 17.6752 11.8582 18.9067 13.5479 19.9462L16.6826 16.76C16.8827 16.5566 17.1442 16.4043 17.467 16.303C17.7898 16.2018 18.1064 16.1733 18.4167 16.2176L23.0188 17.1667C23.33 17.2345 23.5857 17.3873 23.7858 17.625C23.9859 17.8627 24.0859 18.1393 24.0859 18.4548V23.9459C24.0859 24.3527 23.9525 24.6917 23.6858 24.9628C23.419 25.234 23.0855 25.3696 22.6853 25.3696Z" fill="#A01A18"/>
</svg>
