<svg width="146" height="146" viewBox="0 0 146 146" fill="none" xmlns="http://www.w3.org/2000/svg">
<circle cx="72.9699" cy="72.9696" r="51.5079" fill="white"/>
<path d="M53.5807 93.5835L61.0567 90.935L62.4033 91.6303C65.5195 93.2358 69.0809 94.0913 72.9698 94.0913C85.8321 94.0913 95.0446 84.3334 95.0446 72.6067C95.0446 60.837 85.8983 51.1221 72.9698 51.1221C60.0413 51.1221 50.895 60.837 50.895 72.6067C50.9167 77.1107 52.3135 81.4859 54.8758 85.0756L56.1193 86.8334L53.5807 93.5796V93.5835ZM50.9796 98.6226C50.6466 98.741 50.2887 98.7558 49.9481 98.6652C49.6075 98.5746 49.2985 98.3824 49.0574 98.1113C48.8164 97.8402 48.6535 97.5015 48.5879 97.1353C48.5224 96.769 48.5569 96.3905 48.6875 96.0444L51.9362 87.4233C48.8942 83.1568 47.2378 77.9577 47.2158 72.6067C47.2158 59.6613 57.0833 47.2158 72.9698 47.2158C88.8563 47.2158 98.7238 59.6613 98.7238 72.6067C98.7238 85.5521 88.7533 97.9976 72.9698 97.9976C68.3893 97.9976 64.2981 96.9507 60.7992 95.146L50.9759 98.6226H50.9796Z" fill="#A01A18"/>
</svg>
