<svg width="41" height="30" viewBox="0 0 41 30" fill="none" xmlns="http://www.w3.org/2000/svg">
<path d="M40.2669 10.8202C40.3569 8.17251 39.7872 5.54467 38.6108 3.18064C37.8126 2.21062 36.7049 1.55601 35.4807 1.33088C30.4169 0.863859 25.3322 0.672444 20.2484 0.757451C15.1831 0.668585 10.1167 0.853824 5.07075 1.31238C4.07313 1.49683 3.14991 1.97245 2.41375 2.6812C0.77587 4.21651 0.593883 6.84317 0.411897 9.06289C0.147857 13.0539 0.147857 17.0584 0.411897 21.0493C0.464546 22.2987 0.647558 23.5388 0.957856 24.7489C1.17729 25.6831 1.62124 26.5475 2.24996 27.2645C2.99113 28.0108 3.93585 28.5135 4.96155 28.7074C8.88503 29.1996 12.8383 29.4036 16.7907 29.3178C23.1602 29.4103 28.7472 29.3178 35.3533 28.7999C36.4041 28.6179 37.3755 28.1146 38.1376 27.357C38.6471 26.8389 39.0277 26.2048 39.2478 25.5073C39.8986 23.4774 40.2183 21.3529 40.1941 19.2181C40.2669 18.1822 40.2669 11.93 40.2669 10.8202ZM16.1355 20.3279V8.87791L26.9091 14.6307C23.8881 16.3325 19.9026 18.2562 16.1355 20.3279Z" fill="#A01A18"/>
</svg>
